<svg xmlns="http://www.w3.org/2000/svg" xmlns:xlink="http://www.w3.org/1999/xlink" width="500" zoomAndPan="magnify" viewBox="0 0 375 374.999991" height="500" preserveAspectRatio="xMidYMid meet" version="1.0"><defs><g/><clipPath id="bae9afe984"><path d="M 187.5 0 C 83.945312 0 0 83.945312 0 187.5 C 0 291.054688 83.945312 375 187.5 375 C 291.054688 375 375 291.054688 375 187.5 C 375 83.945312 291.054688 0 187.5 0 Z M 187.5 0 " clip-rule="nonzero"/></clipPath><clipPath id="2ec87931c5"><path d="M 0 0 L 375 0 L 375 375 L 0 375 Z M 0 0 " clip-rule="nonzero"/></clipPath><clipPath id="9b57374f43"><path d="M 187.5 0 C 83.945312 0 0 83.945312 0 187.5 C 0 291.054688 83.945312 375 187.5 375 C 291.054688 375 375 291.054688 375 187.5 C 375 83.945312 291.054688 0 187.5 0 Z M 187.5 0 " clip-rule="nonzero"/></clipPath><clipPath id="8f8a89e544"><rect x="0" width="375" y="0" height="375"/></clipPath><clipPath id="a2f1271c8e"><path d="M 57.195312 21.128906 L 169 21.128906 L 169 133 L 57.195312 133 Z M 57.195312 21.128906 " clip-rule="nonzero"/></clipPath><clipPath id="56fe3d7ab3"><path d="M 96 58 L 207.195312 58 L 207.195312 170.378906 L 96 170.378906 Z M 96 58 " clip-rule="nonzero"/></clipPath></defs><g clip-path="url(#bae9afe984)"><g transform="matrix(1, 0, 0, 1, 0, 0)"><g clip-path="url(#8f8a89e544)"><g clip-path="url(#2ec87931c5)"><g clip-path="url(#9b57374f43)"><rect x="-82.5" width="540" fill="#000000" height="539.999987" y="-82.499998" fill-opacity="1"/></g></g></g></g><path stroke-linecap="butt" transform="matrix(0.75, 0, 0, 0.75, 0.0000045, 0)" fill="none" stroke-linejoin="miter" d="M 249.999994 0 C 111.927078 0 -0.000006 111.927084 -0.000006 250 C -0.000006 388.072917 111.927078 500.000001 249.999994 500.000001 C 388.072911 500.000001 499.999995 388.072917 499.999995 250 C 499.999995 111.927084 388.072911 0 249.999994 0 Z M 249.999994 0 " stroke="#00aeef" stroke-width="8" stroke-opacity="1" stroke-miterlimit="4"/></g><g clip-path="url(#a2f1271c8e)"><path fill="#00aeef" d="M 96.207031 54.683594 C 96.207031 49.4375 96.214844 44.46875 96.203125 39.503906 C 96.199219 37.992188 96.039062 36.476562 96.125 34.972656 C 96.363281 30.859375 98.683594 28.082031 102.125 26.128906 C 107.230469 23.238281 112.871094 22.054688 118.605469 21.714844 C 125.503906 21.308594 132.445312 21.132812 139.347656 21.378906 C 146.402344 21.632812 153.347656 22.914062 159.628906 26.449219 C 164.625 29.265625 168.242188 33.140625 168.789062 39.171875 C 168.882812 40.1875 168.8125 41.214844 168.8125 42.242188 C 168.8125 52.398438 168.914062 62.5625 168.75 72.71875 C 168.699219 75.753906 168.316406 78.910156 167.371094 81.777344 C 165.609375 87.105469 161.578125 90.464844 156.273438 92.0625 C 153.664062 92.847656 150.875 93.375 148.164062 93.410156 C 136.636719 93.554688 125.109375 93.464844 113.582031 93.476562 C 110.214844 93.480469 106.886719 93.765625 103.703125 94.984375 C 97.207031 97.472656 93.644531 102.414062 92.113281 108.953125 C 91.636719 110.984375 91.433594 113.117188 91.390625 115.207031 C 91.289062 120.339844 91.359375 125.472656 91.359375 130.609375 L 91.359375 132.257812 C 91.144531 132.433594 91.066406 132.5625 90.988281 132.5625 C 85.964844 132.527344 80.839844 133.101562 75.945312 132.296875 C 68.449219 131.070312 64.078125 125.621094 61.25 118.9375 C 57.734375 110.644531 57.210938 101.867188 57.429688 93.015625 C 57.5625 87.601562 58.164062 82.21875 59.902344 77.058594 C 62.867188 68.261719 68.152344 61.789062 77.84375 60.058594 C 79.261719 59.804688 80.75 59.882812 82.207031 59.882812 C 98.550781 59.871094 114.894531 59.867188 131.238281 59.875 C 131.609375 59.875 131.984375 59.832031 132.628906 59.792969 C 132.628906 58.339844 132.671875 56.90625 132.59375 55.476562 C 132.578125 55.203125 132.132812 54.835938 131.8125 54.726562 C 131.425781 54.59375 130.957031 54.683594 130.527344 54.683594 C 119.808594 54.683594 109.09375 54.683594 98.378906 54.683594 Z M 118.363281 39.089844 C 118.402344 35.667969 115.480469 32.679688 112.007812 32.582031 C 108.535156 32.484375 105.433594 35.484375 105.375 38.992188 C 105.320312 42.445312 108.332031 45.53125 111.828125 45.601562 C 115.257812 45.671875 118.320312 42.617188 118.363281 39.089844 Z M 118.363281 39.089844 " fill-opacity="1" fill-rule="nonzero"/></g><g clip-path="url(#56fe3d7ab3)"><path fill="#00aeef" d="M 132.472656 131.722656 L 132.472656 136.671875 C 133.132812 136.707031 133.753906 136.773438 134.378906 136.773438 C 145.253906 136.78125 156.132812 136.800781 167.007812 136.746094 C 168.40625 136.738281 168.863281 137.070312 168.855469 138.53125 C 168.832031 144.257812 168.996094 149.984375 168.988281 155.710938 C 168.980469 160.289062 166.539062 163.453125 162.660156 165.539062 C 157.617188 168.246094 152.09375 169.464844 146.449219 169.765625 C 139.546875 170.132812 132.609375 170.382812 125.710938 170.117188 C 118.832031 169.855469 112.015625 168.644531 105.855469 165.273438 C 99.753906 161.9375 96.007812 157.191406 96.183594 149.722656 C 96.425781 139.300781 96.222656 128.867188 96.253906 118.4375 C 96.265625 114.402344 96.765625 110.472656 98.96875 106.925781 C 101.796875 102.367188 106.003906 99.824219 111.113281 98.726562 C 113.289062 98.265625 115.488281 98.03125 117.710938 98.019531 C 128.964844 97.953125 140.222656 98.089844 151.476562 97.925781 C 154.675781 97.878906 157.976562 97.433594 161.035156 96.515625 C 166.914062 94.75 170.507812 90.386719 172.308594 84.6875 C 173.125 82.097656 173.5 79.296875 173.601562 76.574219 C 173.796875 71.339844 173.660156 66.09375 173.660156 60.851562 L 173.660156 59.195312 C 173.867188 59.023438 173.945312 58.898438 174.023438 58.898438 C 178.941406 58.925781 183.929688 58.4375 188.753906 59.121094 C 196.414062 60.207031 200.777344 65.679688 203.710938 72.367188 C 205.988281 77.566406 207.140625 83.019531 207.023438 88.742188 C 206.917969 93.984375 207.183594 99.234375 206.960938 104.464844 C 206.628906 112.222656 204.339844 119.355469 198.996094 125.199219 C 194.996094 129.578125 189.90625 131.65625 183.957031 131.652344 C 167.074219 131.632812 150.1875 131.625 133.304688 131.628906 C 133.09375 131.628906 132.878906 131.675781 132.472656 131.722656 Z M 153.207031 158.886719 C 156.722656 158.878906 159.707031 155.832031 159.636719 152.324219 C 159.566406 148.84375 156.632812 145.914062 153.207031 145.898438 C 149.738281 145.886719 146.671875 148.9375 146.667969 152.402344 C 146.667969 155.890625 149.699219 158.894531 153.207031 158.886719 Z M 153.207031 158.886719 " fill-opacity="1" fill-rule="nonzero"/></g><path fill="#00aeef" d="M 310.738281 309.785156 C 324.144531 289.945312 324.097656 259.851562 310.738281 240.007812 C 285.738281 200.148438 226.167969 200.171875 201.167969 240.007812 C 187.5 259.917969 187.5 290.078125 201.058594 309.984375 C 226.058594 349.84375 285.628906 349.820312 310.628906 309.984375 C 310.675781 309.921875 310.710938 309.855469 310.738281 309.785156 Z M 197.53125 278.304688 L 216.976562 278.304688 C 217.179688 287.304688 218.554688 296.125 221.097656 304.757812 L 205.667969 304.757812 C 203.261719 300.742188 201.371094 296.5 199.996094 292.023438 C 198.621094 287.550781 197.796875 282.976562 197.53125 278.304688 Z M 205.601562 245.234375 L 221.03125 245.234375 C 218.488281 253.871094 217.113281 262.6875 216.910156 271.691406 L 197.53125 271.691406 C 197.789062 267.019531 198.597656 262.445312 199.964844 257.972656 C 201.328125 253.5 203.207031 249.253906 205.601562 245.234375 Z M 314.15625 271.691406 L 294.710938 271.691406 C 294.507812 262.6875 293.132812 253.871094 290.589844 245.234375 L 306.019531 245.234375 C 308.425781 249.25 310.316406 253.496094 311.691406 257.96875 C 313.066406 262.441406 313.890625 267.015625 314.15625 271.691406 Z M 288.097656 271.691406 L 268.675781 271.691406 C 268.675781 265.074219 268.386719 255.222656 267.574219 245.234375 L 283.488281 245.234375 C 286.308594 253.828125 287.84375 262.648438 288.097656 271.691406 Z M 250.816406 304.757812 C 250.15625 297.175781 249.714844 288.269531 249.648438 278.304688 L 262.039062 278.304688 C 262.039062 288.269531 261.53125 297.175781 260.871094 304.757812 Z M 260.1875 311.375 C 258.953125 322.042969 257.320312 329.363281 255.777344 332.382812 C 254.300781 329.363281 252.667969 322.042969 251.367188 311.375 Z M 249.648438 271.691406 C 249.648438 261.726562 250.15625 252.816406 250.816406 245.234375 L 260.871094 245.234375 C 261.53125 252.816406 261.972656 261.726562 262.039062 271.691406 Z M 251.5 238.621094 C 252.734375 227.949219 254.367188 220.628906 255.910156 217.609375 C 257.386719 220.628906 259.019531 227.949219 260.320312 238.621094 Z M 266.933594 238.621094 C 266.328125 231.617188 264.984375 224.761719 262.898438 218.050781 C 270.042969 221.070312 276.367188 228.5 280.910156 238.621094 Z M 248.789062 218.050781 C 246.726562 224.765625 245.402344 231.621094 244.820312 238.621094 L 230.777344 238.621094 C 235.320312 228.5 241.644531 221.070312 248.789062 218.050781 Z M 244.113281 245.234375 C 243.300781 255.222656 243.078125 265.074219 243.011719 271.691406 L 223.589844 271.691406 C 223.84375 262.648438 225.378906 253.828125 228.199219 245.234375 Z M 223.589844 278.304688 L 243.011719 278.304688 C 243.011719 284.917969 243.300781 294.773438 244.113281 304.757812 L 228.199219 304.757812 C 225.378906 296.164062 223.84375 287.347656 223.589844 278.304688 Z M 244.753906 311.375 C 245.359375 318.375 246.703125 325.230469 248.789062 331.941406 C 241.644531 328.921875 235.320312 321.492188 230.777344 311.375 Z M 262.898438 331.941406 C 264.960938 325.230469 266.285156 318.371094 266.867188 311.375 L 280.84375 311.375 C 276.367188 321.492188 270.042969 328.921875 262.898438 331.941406 Z M 267.574219 304.757812 C 268.386719 294.773438 268.609375 284.917969 268.675781 278.304688 L 288.097656 278.304688 C 287.84375 287.347656 286.308594 296.164062 283.488281 304.757812 Z M 294.710938 278.304688 L 314.15625 278.304688 C 313.898438 282.972656 313.089844 287.546875 311.722656 292.019531 C 310.359375 296.492188 308.480469 300.742188 306.085938 304.757812 L 290.65625 304.757812 C 293.175781 296.121094 294.53125 287.300781 294.710938 278.304688 Z M 301.5 238.621094 L 288.273438 238.621094 C 285.777344 232.054688 282.226562 226.117188 277.625 220.804688 C 282.304688 222.699219 286.667969 225.15625 290.710938 228.175781 C 294.757812 231.191406 298.355469 234.675781 301.5 238.621094 Z M 234.039062 220.804688 C 229.4375 226.117188 225.890625 232.054688 223.390625 238.621094 L 210.164062 238.621094 C 213.3125 234.675781 216.90625 231.191406 220.953125 228.175781 C 225 225.15625 229.359375 222.699219 234.039062 220.804688 Z M 210.1875 311.375 L 223.414062 311.375 C 225.910156 317.9375 229.460938 323.878906 234.0625 329.1875 C 229.382812 327.292969 225.019531 324.835938 220.976562 321.820312 C 216.929688 318.800781 213.332031 315.320312 210.1875 311.375 Z M 277.648438 329.1875 C 282.25 323.878906 285.796875 317.9375 288.296875 311.375 L 301.523438 311.375 C 298.375 315.320312 294.78125 318.800781 290.734375 321.820312 C 286.6875 324.835938 282.328125 327.292969 277.648438 329.1875 Z M 277.648438 329.1875 " fill-opacity="1" fill-rule="nonzero"/><g fill="#ffffff" fill-opacity="1"><g transform="translate(73.699219, 202.499987)"><g><path d="M 14.75 -28.5625 C 16.789062 -28.5625 18.535156 -28.1875 19.984375 -27.4375 C 21.441406 -26.6875 22.539062 -25.632812 23.28125 -24.28125 C 24.019531 -22.9375 24.390625 -21.375 24.390625 -19.59375 C 24.390625 -17.8125 24.019531 -16.25 23.28125 -14.90625 C 22.539062 -13.5625 21.441406 -12.515625 19.984375 -11.765625 C 18.535156 -11.015625 16.789062 -10.640625 14.75 -10.640625 L 9.359375 -10.640625 L 9.359375 0 L 3.71875 0 L 3.71875 -28.5625 Z M 14 -15.125 C 17.144531 -15.125 18.71875 -16.613281 18.71875 -19.59375 C 18.71875 -22.582031 17.144531 -24.078125 14 -24.078125 L 9.359375 -24.078125 L 9.359375 -15.125 Z M 14 -15.125 "/></g></g></g><g fill="#ffffff" fill-opacity="1"><g transform="translate(99.790419, 202.499987)"><g><path d="M 4.765625 9.140625 C 3.835938 9.140625 3 9.066406 2.25 8.921875 C 1.507812 8.785156 0.90625 8.597656 0.4375 8.359375 L 1.296875 3.984375 L 1.640625 3.875 C 1.960938 4.039062 2.363281 4.175781 2.84375 4.28125 C 3.332031 4.382812 3.832031 4.4375 4.34375 4.4375 C 5.207031 4.4375 5.929688 4.320312 6.515625 4.09375 C 7.097656 3.863281 7.585938 3.484375 7.984375 2.953125 C 8.390625 2.429688 8.75 1.703125 9.0625 0.765625 L 0.46875 -21.546875 L 6.140625 -21.546875 L 11.484375 -6.5625 L 11.953125 -6.5625 L 17.171875 -21.546875 L 22.671875 -21.546875 L 14.03125 1.34375 C 13.332031 3.195312 12.570312 4.6875 11.75 5.8125 C 10.925781 6.9375 9.945312 7.769531 8.8125 8.3125 C 7.6875 8.863281 6.335938 9.140625 4.765625 9.140625 Z M 4.765625 9.140625 "/></g></g></g><g fill="#ffffff" fill-opacity="1"><g transform="translate(122.913159, 202.499987)"><g><path d="M 13.640625 0 L 7.328125 0 L 0.78125 -28.5625 L 6.40625 -28.5625 L 10.71875 -8.484375 L 11.21875 -8.484375 L 16.328125 -28.5625 L 21.15625 -28.5625 L 26.375 -8.484375 L 26.859375 -8.484375 L 31.1875 -28.5625 L 36.625 -28.5625 L 30.09375 0 L 23.765625 0 L 18.765625 -18.421875 L 18.359375 -18.421875 Z M 13.640625 0 "/></g></g></g><g fill="#ffffff" fill-opacity="1"><g transform="translate(159.647832, 202.499987)"><g><path d="M 21.296875 -9.546875 L 7.4375 -9.546875 C 7.59375 -7.671875 8.125 -6.304688 9.03125 -5.453125 C 9.945312 -4.609375 11.195312 -4.1875 12.78125 -4.1875 C 14.007812 -4.1875 15.007812 -4.414062 15.78125 -4.875 C 16.550781 -5.332031 17.171875 -6.03125 17.640625 -6.96875 L 18.046875 -6.96875 L 21.640625 -4.671875 C 20.941406 -3.160156 19.878906 -1.9375 18.453125 -1 C 17.035156 -0.0625 15.144531 0.40625 12.78125 0.40625 C 10.550781 0.40625 8.625 -0.015625 7 -0.859375 C 5.382812 -1.703125 4.132812 -2.960938 3.25 -4.640625 C 2.375 -6.316406 1.9375 -8.359375 1.9375 -10.765625 C 1.9375 -13.210938 2.394531 -15.273438 3.3125 -16.953125 C 4.238281 -18.628906 5.488281 -19.878906 7.0625 -20.703125 C 8.644531 -21.535156 10.421875 -21.953125 12.390625 -21.953125 C 15.429688 -21.953125 17.757812 -21.144531 19.375 -19.53125 C 21 -17.914062 21.8125 -15.546875 21.8125 -12.421875 C 21.8125 -11.285156 21.773438 -10.40625 21.703125 -9.78125 Z M 16.640625 -13.046875 C 16.585938 -14.691406 16.207031 -15.882812 15.5 -16.625 C 14.789062 -17.375 13.753906 -17.75 12.390625 -17.75 C 9.648438 -17.75 8.039062 -16.179688 7.5625 -13.046875 Z M 16.640625 -13.046875 "/></g></g></g><g fill="#ffffff" fill-opacity="1"><g transform="translate(183.063519, 202.499987)"><g><path d="M 15.0625 0.40625 C 12.3125 0.40625 10.265625 -0.617188 8.921875 -2.671875 L 8.515625 -2.59375 L 8.515625 0 L 3.109375 0 L 3.109375 -30.203125 L 8.515625 -30.203125 L 8.515625 -19 L 8.921875 -18.921875 C 9.671875 -19.953125 10.546875 -20.710938 11.546875 -21.203125 C 12.554688 -21.703125 13.765625 -21.953125 15.171875 -21.953125 C 16.921875 -21.953125 18.445312 -21.539062 19.75 -20.71875 C 21.050781 -19.90625 22.066406 -18.660156 22.796875 -16.984375 C 23.523438 -15.304688 23.890625 -13.234375 23.890625 -10.765625 C 23.890625 -8.316406 23.507812 -6.253906 22.75 -4.578125 C 22 -2.910156 20.957031 -1.660156 19.625 -0.828125 C 18.300781 -0.00390625 16.78125 0.40625 15.0625 0.40625 Z M 13.421875 -4.1875 C 15.003906 -4.1875 16.210938 -4.710938 17.046875 -5.765625 C 17.878906 -6.828125 18.296875 -8.492188 18.296875 -10.765625 C 18.296875 -13.046875 17.878906 -14.710938 17.046875 -15.765625 C 16.210938 -16.828125 15.003906 -17.359375 13.421875 -17.359375 C 11.898438 -17.359375 10.691406 -16.8125 9.796875 -15.71875 C 8.898438 -14.625 8.453125 -12.972656 8.453125 -10.765625 C 8.453125 -8.546875 8.898438 -6.894531 9.796875 -5.8125 C 10.691406 -4.726562 11.898438 -4.1875 13.421875 -4.1875 Z M 13.421875 -4.1875 "/></g></g></g><g fill="#ffffff" fill-opacity="1"><g transform="translate(208.861784, 202.499987)"><g><path d="M 15.609375 0.40625 C 12.972656 0.40625 10.648438 -0.140625 8.640625 -1.234375 C 6.640625 -2.328125 5.070312 -3.96875 3.9375 -6.15625 C 2.8125 -8.351562 2.25 -11.0625 2.25 -14.28125 C 2.25 -17.5 2.8125 -20.203125 3.9375 -22.390625 C 5.070312 -24.585938 6.640625 -26.234375 8.640625 -27.328125 C 10.648438 -28.421875 12.972656 -28.96875 15.609375 -28.96875 C 18.359375 -28.96875 20.691406 -28.429688 22.609375 -27.359375 C 24.523438 -26.285156 25.894531 -24.644531 26.71875 -22.4375 L 22.59375 -19.921875 L 22.109375 -19.9375 C 21.492188 -21.425781 20.660156 -22.492188 19.609375 -23.140625 C 18.566406 -23.785156 17.234375 -24.109375 15.609375 -24.109375 C 13.234375 -24.109375 11.378906 -23.320312 10.046875 -21.75 C 8.722656 -20.175781 8.0625 -17.6875 8.0625 -14.28125 C 8.0625 -10.882812 8.722656 -8.398438 10.046875 -6.828125 C 11.378906 -5.253906 13.234375 -4.46875 15.609375 -4.46875 C 19.316406 -4.46875 21.585938 -6.273438 22.421875 -9.890625 L 22.90625 -9.890625 L 27.078125 -7.71875 C 26.296875 -5.007812 24.957031 -2.976562 23.0625 -1.625 C 21.175781 -0.269531 18.691406 0.40625 15.609375 0.40625 Z M 15.609375 0.40625 "/></g></g></g><g fill="#ffffff" fill-opacity="1"><g transform="translate(236.86686, 202.499987)"><g><path d="M 3.109375 0 L 3.109375 -30.203125 L 8.515625 -30.203125 L 8.515625 -18.734375 L 8.921875 -18.65625 C 9.640625 -19.707031 10.519531 -20.519531 11.5625 -21.09375 C 12.601562 -21.664062 13.859375 -21.953125 15.328125 -21.953125 C 20.085938 -21.953125 22.46875 -19.257812 22.46875 -13.875 L 22.46875 0 L 17.046875 0 L 17.046875 -13.1875 C 17.046875 -14.65625 16.753906 -15.722656 16.171875 -16.390625 C 15.585938 -17.054688 14.675781 -17.390625 13.4375 -17.390625 C 11.925781 -17.390625 10.726562 -16.882812 9.84375 -15.875 C 8.957031 -14.863281 8.515625 -13.289062 8.515625 -11.15625 L 8.515625 0 Z M 3.109375 0 "/></g></g></g><g fill="#ffffff" fill-opacity="1"><g transform="translate(262.098769, 202.499987)"><g><path d="M 8.40625 0.40625 C 7.019531 0.40625 5.816406 0.15625 4.796875 -0.34375 C 3.785156 -0.851562 3.003906 -1.597656 2.453125 -2.578125 C 1.910156 -3.566406 1.640625 -4.753906 1.640625 -6.140625 C 1.640625 -7.410156 1.910156 -8.476562 2.453125 -9.34375 C 3.003906 -10.207031 3.851562 -10.914062 5 -11.46875 C 6.144531 -12.03125 7.644531 -12.457031 9.5 -12.75 C 10.78125 -12.957031 11.753906 -13.1875 12.421875 -13.4375 C 13.097656 -13.6875 13.550781 -13.96875 13.78125 -14.28125 C 14.019531 -14.59375 14.140625 -14.988281 14.140625 -15.46875 C 14.140625 -16.15625 13.898438 -16.679688 13.421875 -17.046875 C 12.941406 -17.410156 12.140625 -17.59375 11.015625 -17.59375 C 9.816406 -17.59375 8.675781 -17.328125 7.59375 -16.796875 C 6.519531 -16.265625 5.582031 -15.5625 4.78125 -14.6875 L 4.390625 -14.6875 L 2.125 -18.109375 C 3.21875 -19.316406 4.550781 -20.257812 6.125 -20.9375 C 7.707031 -21.613281 9.429688 -21.953125 11.296875 -21.953125 C 14.140625 -21.953125 16.195312 -21.347656 17.46875 -20.140625 C 18.75 -18.929688 19.390625 -17.210938 19.390625 -14.984375 L 19.390625 -5.625 C 19.390625 -4.664062 19.816406 -4.1875 20.671875 -4.1875 C 20.992188 -4.1875 21.3125 -4.242188 21.625 -4.359375 L 21.890625 -4.28125 L 22.28125 -0.515625 C 21.988281 -0.316406 21.570312 -0.15625 21.03125 -0.03125 C 20.5 0.09375 19.914062 0.15625 19.28125 0.15625 C 17.988281 0.15625 16.976562 -0.0859375 16.25 -0.578125 C 15.53125 -1.078125 15.015625 -1.851562 14.703125 -2.90625 L 14.296875 -2.953125 C 13.242188 -0.710938 11.28125 0.40625 8.40625 0.40625 Z M 10.125 -3.640625 C 11.375 -3.640625 12.367188 -4.054688 13.109375 -4.890625 C 13.859375 -5.734375 14.234375 -6.90625 14.234375 -8.40625 L 14.234375 -10.59375 L 13.875 -10.671875 C 13.539062 -10.410156 13.109375 -10.191406 12.578125 -10.015625 C 12.054688 -9.835938 11.300781 -9.664062 10.3125 -9.5 C 9.144531 -9.300781 8.300781 -8.960938 7.78125 -8.484375 C 7.269531 -8.015625 7.015625 -7.34375 7.015625 -6.46875 C 7.015625 -5.539062 7.285156 -4.835938 7.828125 -4.359375 C 8.378906 -3.878906 9.144531 -3.640625 10.125 -3.640625 Z M 10.125 -3.640625 "/></g></g></g><g fill="#ffffff" fill-opacity="1"><g transform="translate(284.557512, 202.499987)"><g><path d="M 14.859375 -5.140625 L 16.265625 -1.140625 C 15.679688 -0.648438 14.945312 -0.269531 14.0625 0 C 13.175781 0.269531 12.175781 0.40625 11.0625 0.40625 C 8.726562 0.40625 6.953125 -0.226562 5.734375 -1.5 C 4.523438 -2.769531 3.921875 -4.613281 3.921875 -7.03125 L 3.921875 -17.265625 L 0.640625 -17.265625 L 0.640625 -21.5625 L 3.921875 -21.5625 L 3.921875 -25.765625 L 9.34375 -26.640625 L 9.34375 -21.5625 L 15.453125 -21.5625 L 15.453125 -17.265625 L 9.34375 -17.265625 L 9.34375 -7.421875 C 9.34375 -6.359375 9.5625 -5.582031 10 -5.09375 C 10.445312 -4.601562 11.09375 -4.359375 11.9375 -4.359375 C 12.894531 -4.359375 13.734375 -4.617188 14.453125 -5.140625 Z M 14.859375 -5.140625 "/></g></g></g></svg>